HIERARCHY
ROOT Hips
{
	OFFSET 0.00000 0.00000 0.00000
	CHANNELS 6 Xposition Yposition Zposition Yrotation Zrotation Xrotation 
	JOINT Lumbar
	{
		OFFSET 0 0 0
		CHANNELS 3 Zrotation Xrotation Yrotation
		JOINT Neck
		{
			OFFSET 0.00 0.2701 0.00
			CHANNELS 3 Zrotation Xrotation Yrotation
			End Site
			{
				OFFSET 0.00 0.1379 0.00
			}
		}
		JOINT RightShoulder
		{
			OFFSET 0.0119 0.2289 0.1181
			CHANNELS 3 Zrotation Xrotation Yrotation
			JOINT RightElbow
			{
				OFFSET 0.00 -0.1475 0.00
				CHANNELS 2 Zrotation Yrotation
				JOINT RightWrist
				{
					OFFSET 0.00 -0.1605 0.00
					CHANNELS 2 Zrotation Xrotation
					End Site
					{
						OFFSET 0.0040 -0.1068 0.0006
					}
				}
			}
		}
		JOINT LeftShoulder
		{
			OFFSET 0.0119 0.2289 -0.1181
			CHANNELS 3 Zrotation Xrotation Yrotation
			JOINT LeftElbow
			{
				OFFSET 0.00 -0.1475 0.00
				CHANNELS 2 Zrotation Yrotation
				JOINT LeftWrist
				{
					OFFSET 0.00 -0.1605 0.00
					CHANNELS 2 Zrotation Xrotation
					End Site
					{
						OFFSET 0.0040 -0.1068 -0.0006
					}
				}
			}
		}
	}
	JOINT RightHip
	{
		OFFSET 0.0316 -0.0424 0.0458
		CHANNELS 3 Zrotation Xrotation Yrotation
		JOINT RightKnee
		{
			OFFSET 0.00 -0.2438 0.00
			CHANNELS 1 Zrotation
			JOINT RightAnkle
			{
				OFFSET 0.00 -0.2449 0.00
				CHANNELS 3 Zrotation Xrotation Yrotation
				End Site
				{
					OFFSET 0.1237 -0.0542 0.0051
				}
			}
		}
	}
	JOINT LeftHip
	{
		OFFSET 0.0316 -0.0424 -0.0458
		CHANNELS 3 Zrotation Xrotation Yrotation
		JOINT LeftKnee
		{
			OFFSET 0.00 -0.2438 0.00
			CHANNELS 1 Zrotation
			JOINT LeftAnkle
			{
				OFFSET 0.00 -0.2449 0.00
				CHANNELS 3 Zrotation Xrotation Yrotation
				End Site
				{
					OFFSET 0.1237 -0.0542 -0.0051
				}
			}
		}
	}
}
MOTION
Frames: 33
Frame Time: 0.02
0.00255 -0.00054 -0.00231 136.17096 -24.26686 2.19318 35.02985 4.55215 -3.66839 -20.68269 -10.79926 -1.11311 -16.75176 -18.25361 7.70649 40.80133 81.72554 -9.1692 -2.94193 -30.79945 18.58285 -12.09589 45.05615 -85.02199 -11.41452 4.49066 24.09151 0.25854 -15.34009 -19.95827 -7.49309 -2.71711 -3.59431 29.29893 11.77475 7.99504 -28.94615 -10.62481 2.80901 3.80077
0.00173 -0.00079 -0.00146 136.47594 -24.56152 2.01961 35.43548 4.55549 -3.93012 -20.59865 -10.82822 -1.1144 -17.08158 -18.24377 7.5199 40.99555 81.69728 -9.14837 -2.9388 -29.79928 18.98273 -12.52502 46.49007 -85.12268 -11.4771 4.52049 24.48367 0.30996 -15.44661 -20.1012 -7.47755 -2.73674 -3.60436 29.61308 11.73132 7.90986 -28.75696 -10.51866 2.84636 3.81438
0.00091 -0.00104 -0.00062 136.78029 -24.85517 1.84647 35.83968 4.55864 -4.19125 -20.51445 -10.85696 -1.1157 -17.41045 -18.23359 7.33376 41.18826 81.66887 -9.12665 -2.93534 -28.80094 19.38148 -12.95349 47.91951 -85.22188 -11.53839 4.54973 24.87449 0.36118 -15.55281 -20.24355 -7.4621 -2.75635 -3.61439 29.92624 11.68807 7.82528 -28.56835 -10.41273 2.88353 3.82791
0.0001 -0.00129 0.00023 137.0844 -25.14889 1.67342 36.24402 4.56193 -4.45222 -20.4306 -10.88582 -1.11699 -17.73925 -18.22372 7.14772 41.38171 81.64063 -9.10573 -2.93217 -27.80361 19.78016 -13.38141 49.34904 -85.32203 -11.60063 4.57939 25.2654 0.41244 -15.659 -20.38601 -7.44661 -2.77593 -3.62442 30.23941 11.6448 7.74044 -28.37974 -10.30688 2.92076 3.84147
-0.00071 -0.00155 0.00107 137.38895 -25.44369 1.49994 36.64985 4.56548 -4.71367 -20.34706 -10.9149 -1.11829 -18.06905 -18.2143 6.96131 41.57707 81.6127 -9.08604 -2.92946 -26.80504 20.17989 -13.80972 50.78296 -85.42423 -11.6645 4.60983 25.65774 0.4639 -15.76551 -20.5291 -7.43103 -2.79552 -3.63444 30.55361 11.60129 7.65481 -28.19056 -10.20087 2.9582 3.85513
-0.00153 -0.00179 0.00192 137.69283 -25.73492 1.32753 37.05062 4.5678 -4.97409 -20.26148 -10.9429 -1.11958 -18.39596 -18.20255 6.77577 41.76424 81.58331 -9.06006 -2.92442 -25.8073 20.57654 -14.23846 52.20284 -85.51718 -11.72035 4.63652 26.04539 0.5146 -15.87109 -20.66991 -7.41584 -2.81515 -3.64449 30.86456 11.55858 7.57241 -28.00317 -10.09511 2.99481 3.86839
-0.00234 -0.00205 0.00276 137.99787 -26.0329 1.15321 37.46107 4.57257 -5.2364 -20.18011 -10.97314 -1.12087 -18.72817 -18.1955 6.58859 41.96749 81.55674 -9.04679 -2.92407 -24.80874 20.97902 -14.66591 53.64962 -85.62832 -11.79243 4.67074 26.44191 0.5668 -15.97838 -20.81511 -7.39988 -2.83469 -3.65449 31.18162 11.51439 7.48376 -27.81238 -9.98895 3.03301 3.88243
-0.00316 -0.0023 0.00361 138.3016 -26.32487 0.98057 37.86272 4.57512 -5.49679 -20.09484 -11.00116 -1.12217 -19.05577 -18.18413 6.40312 42.15626 81.52785 -9.02173 -2.91941 -23.81141 21.37601 -15.09445 55.07119 -85.72328 -11.84926 4.69798 26.8305 0.61758 -16.08414 -20.95634 -7.38463 -2.85429 -3.66452 31.49322 11.47145 7.40062 -27.62473 -9.88318 3.06981 3.89578
-0.00397 -0.00254 0.00446 138.60486 -26.60877 0.81021 38.25323 4.57477 -5.75566 -20.00477 -11.02704 -1.12348 -19.37679 -18.16733 6.21888 42.32586 81.49496 -8.98238 -2.90938 -22.81305 21.76691 -15.52505 56.46413 -85.79592 -11.88841 4.71677 27.20854 0.66678 -16.18791 -21.09244 -7.37024 -2.87409 -3.67464 31.79758 11.43047 7.32525 -27.44082 -9.77775 3.10464 3.90815
-0.00479 -0.00283 0.00528 138.91425 -26.93693 0.62743 38.70672 4.59051 -6.02577 -19.94219 -11.067 -1.12472 -19.73281 -18.18135 6.02495 42.60135 81.48156 -9.02559 -2.92992 -21.81292 22.19473 -15.94602 58.02841 -85.98932 -12.03215 4.78443 27.64469 0.72554 -16.30276 -21.25723 -7.3509 -2.89313 -3.68442 32.14189 11.37951 7.20826 -27.23508 -9.66992 3.15003 3.92574
-0.00559 -0.00302 0.00618 139.20846 -27.17306 0.47042 39.02799 4.57271 -6.27056 -19.82174 -11.07613 -1.12611 -20.01681 -18.13066 5.85315 42.65631 81.42932 -8.8945 -2.88619 -20.8217 22.5434 -16.38579 59.22689 -85.93297 -11.95352 4.74884 27.95988 0.76384 -16.39447 -21.36202 -7.34198 -2.91351 -3.6948 32.40298 11.34877 7.17708 -27.07559 -9.56748 3.17364 3.93258
-0.00634 -0.00296 0.0073 139.47889 -27.14281 0.38815 38.97691 4.45862 -6.45855 -19.53992 -11.00861 -1.12786 -20.08656 -17.89773 5.72834 42.07691 81.25031 -8.28245 -2.66288 -19.81356 22.68283 -16.8884 59.44677 -85.14195 -11.27452 4.42883 27.92619 0.74788 -16.41968 -21.29595 -7.36224 -2.93959 -3.70774 32.42429 11.38119 7.40144 -27.04256 -9.47703 3.13266 3.90736
-0.00707 -0.0028 0.00852 139.73057 -27.02245 0.33098 38.79436 4.3116 -6.61882 -19.2005 -10.90846 -1.12979 -20.08716 -17.60058 5.62806 41.28185 81.03573 -7.49695 -2.37589 -18.82307 22.74103 -17.40645 59.29439 -84.10881 -10.37204 4.00582 27.77388 0.71106 -16.42196 -21.17061 -7.39289 -2.96662 -3.7211 32.36379 11.43269 7.70904 -27.05599 -9.39246 3.07061 3.87177
-0.00782 -0.00268 0.0097 139.97944 -26.95268 0.25974 38.67877 4.18246 -6.78346 -18.88912 -10.81832 -1.13164 -20.1302 -17.33601 5.52584 40.60404 80.85104 -6.79115 -2.11983 -17.8502 22.8316 -17.91182 59.29625 -83.21925 -9.56334 3.63007 27.68731 0.6825 -16.43701 -21.07667 -7.41838 -2.99188 -3.73366 32.34863 11.47017 7.96447 -27.04851 -9.3071 3.02144 3.84264
-0.00852 -0.00256 0.01087 140.27694 -26.84309 0.19991 38.53433 4.04109 -6.9826 -18.56966 -10.74934 -1.13337 -20.12631 -17.05743 5.38581 39.84301 80.60967 -6.07683 -1.8542 -16.76486 22.94239 -18.44671 59.36151 -82.18947 -8.78034 3.25028 27.5518 0.65886 -16.44312 -20.96446 -7.44563 -3.02278 -3.74877 32.30031 11.52943 8.27737 -27.04047 -9.21401 2.95862 3.80626
-0.00932 -0.00243 0.01209 140.46766 -26.79379 0.12212 38.41647 3.91719 -7.10355 -18.2535 -10.62747 -1.13552 -20.20412 -16.79224 5.32907 39.20614 80.47625 -5.34479 -1.59473 -15.92333 22.99027 -18.9168 59.20512 -81.392 -7.89924 2.85691 27.48855 0.62024 -16.4611 -20.87538 -7.47179 -3.04217 -3.75868 32.29986 11.54889 8.49435 -27.04435 -9.13818 2.91883 3.78231
-0.01044 -0.00226 0.01344 140.37687 -26.94516 -0.01012 38.42526 3.85169 -7.01335 -17.9598 -10.37715 -1.13774 -20.52172 -16.58493 5.50671 38.94936 80.66437 -4.55801 -1.35531 -15.70532 22.89767 -19.26402 58.53981 -81.31704 -6.72965 2.43027 27.6685 0.54352 -16.52968 -20.87255 -7.49135 -3.02939 -3.75408 32.46842 11.44456 8.39025 -27.07185 -9.11056 2.95153 3.79712
-0.01166 -0.00208 0.01486 140.17752 -27.15858 -0.16154 38.46175 3.8046 -6.8459 -17.67167 -10.07323 -1.14055 -20.92429 -16.39238 5.76494 38.82812 80.95968 -3.76812 -1.12576 -15.74076 22.74215 -19.53466 57.66165 -81.48064 -5.48174 1.99711 27.92326 0.45262 -16.6093 -20.89375 -7.5096 -3.00497 -3.7442 32.68555 11.30104 8.19278 -27.10942 -9.09976 3.00753 3.82447
-0.01283 -0.00191 0.01625 140.0223 -27.33505 -0.30505 38.4714 3.74765 -6.71499 -17.38136 -9.78723 -1.14381 -21.28996 -16.18968 5.98004 38.65483 81.19621 -3.01182 -0.90109 -15.68961 22.6066 -19.80064 56.87382 -81.52028 -4.31829 1.58118 28.13331 0.36967 -16.67515 -20.89856 -7.52913 -2.98607 -3.73679 32.86855 11.18178 8.06237 -27.14083 -9.07988 3.05037 3.84479
-0.01401 -0.00174 0.01761 139.88892 -27.54332 -0.4443 38.53538 3.69563 -6.57664 -17.08713 -9.52615 -1.14415 -21.64664 -15.9992 6.22529 38.43292 81.47381 -2.11506 -0.63837 -15.51739 22.50434 -20.23228 56.1021 -81.61542 -2.94438 1.10286 28.38159 0.28039 -16.77481 -20.92367 -7.54623 -2.9665 -3.72922 33.09674 11.03681 7.83351 -27.1801 -9.0661 3.10305 3.87022
-0.0152 -0.00156 0.01907 139.68387 -27.70378 -0.59726 38.49603 3.63844 -6.43636 -16.80367 -9.20228 -1.15057 -22.04231 -15.7877 6.42427 38.34824 81.69203 -1.51055 -0.45344 -15.65854 22.31917 -20.30233 55.2485 -81.65687 -1.98854 0.75244 28.57313 0.20026 -16.80989 -20.9139 -7.56783 -2.94521 -3.72056 33.24698 10.93475 7.78314 -27.20534 -9.04378 3.1414 3.8883
-0.01638 -0.00136 0.02075 139.3133 -27.69542 -0.78389 38.15137 3.55996 -6.30488 -16.54427 -8.70624 -1.17486 -22.53194 -15.51452 6.49607 38.60204 81.71809 -1.73007 -0.52352 -16.59216 21.91831 -19.37693 54.24586 -81.47479 -2.24778 0.771 28.55934 0.15713 -16.63742 -20.79414 -7.60329 -2.92517 -3.7119 33.13978 10.96978 8.2753 -27.1844 -8.99189 3.13159 3.88158
-0.01757 -0.00115 0.02253 138.87352 -27.64108 -0.98368 37.70447 3.47629 -6.1751 -16.29671 -8.15141 -1.20506 -23.05684 -15.22024 6.51509 38.99154 81.68126 -2.24126 -0.66573 -17.83401 21.43715 -18.09345 53.16599 -81.23468 -2.92423 0.91489 28.49199 0.12247 -16.40352 -20.64007 -7.64315 -2.90332 -3.70209 32.95839 11.04732 8.94401 -27.14962 -8.93124 3.10726 3.86737
-0.01875 -0.00095 0.02429 138.46155 -27.62267 -1.17723 37.31424 3.39681 -6.04787 -16.04669 -7.63124 -1.23172 -23.56132 -14.93566 6.54428 39.32504 81.67465 -2.60962 -0.74502 -18.94212 20.99436 -16.98375 52.10613 -81.03366 -3.38311 0.99444 28.46986 0.07836 -16.2167 -20.50728 -7.68011 -2.88006 -3.69161 32.83142 11.09969 9.51499 -27.12431 -8.8757 3.09154 3.85755
-0.01996 -0.00074 0.02597 138.06058 -27.54373 -1.37254 36.8835 3.3102 -5.90411 -15.78404 -7.07494 -1.26188 -24.08745 -14.65011 6.63272 39.63995 81.66474 -3.02278 -0.94447 -20.03358 20.54074 -15.82345 51.09966 -80.78771 -3.95562 1.11087 28.36275 0.05654 -15.954 -20.35181 -7.72053 -2.86532 -3.68569 32.61921 11.17643 10.1602 -27.08625 -8.81563 3.06795 3.84387
-0.0211 -0.00055 0.02783 137.6224 -27.5781 -1.56705 36.51036 3.23702 -5.79596 -15.55099 -6.58153 -1.2863 -24.57553 -14.36262 6.58655 40.02313 81.64549 -3.40991 -0.91994 -21.22807 20.09224 -14.68611 49.96978 -80.61773 -4.39356 1.1728 28.41815 -0.00844 -15.82878 -20.23443 -7.75518 -2.83319 -3.67043 32.56567 11.21176 10.68947 -27.07094 -8.76314 3.05724 3.83645
-0.022 -0.00039 0.03018 137.0932 -27.94584 -1.75616 36.33963 3.20158 -5.78775 -15.39207 -6.26863 -1.29217 -24.9514 -14.06413 6.16047 40.5689 81.61441 -3.6721 -0.17782 -22.64319 19.67128 -13.68665 48.49272 -80.67768 -4.34156 1.12122 28.94253 -0.20429 -16.15104 -20.23671 -7.76965 -2.74779 -3.62647 32.97409 11.13421 10.89876 -27.12518 -8.72965 3.0829 3.84642
-0.02281 -0.00025 0.03271 136.53069 -28.42737 -1.94392 36.22674 3.17979 -5.81513 -15.26321 -6.02257 -1.29229 -25.28695 -13.76628 5.60417 41.17623 81.57582 -3.89503 0.77818 -24.14745 19.25998 -12.72573 46.90105 -80.81388 -4.14316 0.99987 29.63077 -0.44233 -16.60571 -20.27729 -7.77874 -2.6459 -3.57369 33.54361 11.01234 10.98108 -27.20215 -8.70448 3.12211 3.86302
-0.02366 -0.0001 0.03518 135.98715 -28.85019 -2.13222 36.07531 3.15214 -5.82555 -15.12384 -5.75136 -1.29584 -25.6397 -13.47528 5.12102 41.75056 81.54108 -4.12344 1.58146 -25.60264 18.84833 -11.75587 45.37821 -80.91001 -4.02292 0.86361 30.2387 -0.6543 -16.96276 -20.29618 -7.79245 -2.55553 -3.52719 34.03523 10.90214 11.08919 -27.26647 -8.67847 3.15719 3.87783
-0.02454 5e-05 0.03757 135.42411 -29.30015 -2.32134 35.97243 3.12316 -5.84015 -14.97226 -5.45672 -1.29614 -25.99894 -13.15377 4.57748 42.35279 81.50242 -4.41256 2.61195 -27.10684 18.41567 -10.73628 43.77745 -81.02684 -3.86822 0.92033 30.86874 -0.89381 -17.46827 -20.33181 -7.7973 -2.44875 -3.47141 34.54349 10.82575 11.32403 -27.34004 -8.64094 3.18447 3.88789
-0.02532 0.0002 0.04017 134.89574 -29.72223 -2.50821 35.78305 3.0999 -5.8534 -14.85226 -5.22661 -1.30176 -26.33404 -12.89575 4.12901 42.90736 81.47092 -4.56416 3.22676 -28.52364 18.03151 -9.83534 42.31829 -81.11978 -3.74494 0.56718 31.49326 -1.08769 -17.70621 -20.34233 -7.81904 -2.37142 -3.43244 35.05705 10.67212 11.28018 -27.39998 -8.62798 3.22984 3.90867
-0.0259 0.00036 0.04326 134.46339 -30.03053 -2.68949 35.34529 3.09222 -5.86392 -14.819 -5.1668 -1.32365 -26.61701 -12.81733 3.97957 43.33387 81.46148 -4.32663 2.59191 -29.69446 17.76789 -9.24454 41.23121 -81.12468 -3.74365 -0.9901 32.05435 -1.13101 -17.08922 -20.27241 -7.89069 -2.38705 -3.4461 35.53976 10.27789 10.33887 -27.41635 -8.69423 3.33589 3.96501
-0.02638 0.00052 0.04655 134.0693 -30.30855 -2.86835 34.81838 3.08926 -5.87016 -14.81497 -5.16836 -1.35104 -26.87596 -12.80217 3.93002 43.70546 81.45972 -3.95422 1.54136 -30.7683 17.55539 -8.77561 40.2992 -81.10383 -3.777 -2.94162 32.60568 -1.12938 -16.21223 -20.17645 -7.97916 -2.4317 -3.47634 36.02361 9.81329 9.14592 -27.41835 -8.78274 3.4575 4.03073
